<?xml version="1.0" encoding="UTF-8" standalone="no"?>
<svg
   width="64"
   height="64"
   version="1.1"
   viewBox="0 0 16.933 16.933"
   id="svg7"
   sodipodi:docname="heroic.svg"
   inkscape:version="1.4.3 (0d15f75042, 2025-12-25)"
   xmlns:inkscape="http://www.inkscape.org/namespaces/inkscape"
   xmlns:sodipodi="http://sodipodi.sourceforge.net/DTD/sodipodi-0.dtd"
   xmlns="http://www.w3.org/2000/svg"
   xmlns:svg="http://www.w3.org/2000/svg"
   xmlns:rdf="http://www.w3.org/1999/02/22-rdf-syntax-ns#"
   xmlns:cc="http://creativecommons.org/ns#"
   xmlns:dc="http://purl.org/dc/elements/1.1/">
  <sodipodi:namedview
     id="namedview7"
     pagecolor="#9c4444"
     bordercolor="#000000"
     borderopacity="0.25"
     inkscape:showpageshadow="2"
     inkscape:pageopacity="0.0"
     inkscape:pagecheckerboard="0"
     inkscape:deskcolor="#d1d1d1"
     inkscape:zoom="6.15625"
     inkscape:cx="15.837563"
     inkscape:cy="46.944162"
     inkscape:window-width="2560"
     inkscape:window-height="1388"
     inkscape:window-x="0"
     inkscape:window-y="0"
     inkscape:window-maximized="1"
     inkscape:current-layer="svg7"
     showgrid="false" />
  <defs
     id="defs2">
    <style
       id="current-color-scheme"
       type="text/css">.ColorScheme-Text {color:#d8dee9} .ColorScheme-Highlight {color:#3b4252}</style>
  </defs>
  <metadata
     id="metadata2">
    <rdf:RDF>
      <cc:Work
         rdf:about="">
        <dc:format>image/svg+xml</dc:format>
        <dc:type
           rdf:resource="http://purl.org/dc/dcmitype/StillImage" />
      </cc:Work>
    </rdf:RDF>
  </metadata>
  <path
     style="fill:currentColor;fill-opacity:1;stroke-width:0.0702302"
     d="M 8.2308366,15.408086 C 8.1547456,15.369732 8.0370072,15.296021 7.9691961,15.244278 7.6601715,15.00849 5.707483,13.310499 5.5342267,13.12691 5.1812466,12.752879 5.2966645,13.107691 3.7269941,7.571265 2.9668225,4.8900424 2.3293185,2.6303842 2.3103198,2.5498016 2.2618819,2.3443597 2.2655933,2.1742187 2.3208809,2.0658541 2.4107298,1.8897355 2.5717109,1.7900726 3.0797423,1.5960479 L 3.4485889,1.4551798 h 5.0184647 5.0184654 l 0.358502,0.1370047 c 0.560993,0.2143881 0.707002,0.3053144 0.783229,0.4877555 0.04649,0.1112364 0.03679,0.3422819 -0.02385,0.5691539 -0.02926,0.109442 -0.666371,2.3585662 -1.415814,4.9980534 -1.547741,5.4510287 -1.435375,5.1066127 -1.787716,5.4795177 -0.174358,0.184536 -2.12526,1.881348 -2.4330254,2.116142 -0.1848449,0.141018 -0.3847402,0.235013 -0.4998007,0.235013 -0.062017,0 -0.1485467,-0.02555 -0.2362143,-0.06974 z m 0.5292008,-1.452103 c 0.1543088,-0.07735 0.2805603,-0.15026 0.2805603,-0.162012 0,-0.01173 -0.031805,-0.304002 -0.070677,-0.649437 L 8.8992414,12.51647 8.6953392,12.311619 C 8.5831931,12.198942 8.4804633,12.106768 8.4670509,12.106768 c -0.013394,0 -0.1161427,0.09219 -0.2282882,0.204851 l -0.2039022,0.204851 -0.070677,0.628066 c -0.038872,0.345434 -0.070679,0.637674 -0.070679,0.649424 0,0.01942 0.5260814,0.298608 0.5680545,0.301453 0.00986,6.86e-4 0.1441693,-0.06206 0.2984776,-0.139429 z M 7.2497268,12.047812 c 0.3218884,-0.03191 0.6022957,-0.05805 0.6231267,-0.05807 0.021906,-1.6e-5 0.099189,-0.09302 0.1832883,-0.220556 L 8.2015567,11.548658 8.0588694,11.336452 C 7.9662684,11.198724 7.8978236,11.120399 7.863877,11.113287 7.797287,11.099397 6.6086046,10.983066 6.5325629,10.983066 c -0.049419,0 -0.075265,0.03709 -0.1960003,0.281268 l -0.1390752,0.28127 0.1457253,0.292552 0.1457236,0.292553 0.08777,-0.01245 c 0.048273,-0.0068 0.3511336,-0.03855 0.673021,-0.07046 z M 10.59103,11.8379 l 0.145587,-0.292278 -0.139076,-0.28127 c -0.120735,-0.244177 -0.146581,-0.281268 -0.196,-0.281268 -0.07604,0 -1.2647255,0.116257 -1.3313143,0.130221 -0.033947,0.0072 -0.1023911,0.08546 -0.1949941,0.223162 l -0.1426855,0.212205 0.1454131,0.220527 c 0.1207007,0.183047 0.1558305,0.220785 0.2066988,0.22204 0.033708,7.92e-4 0.3404504,0.03117 0.6816524,0.06742 0.3412026,0.03624 0.6335886,0.06717 0.6497486,0.06872 0.01616,0.0016 0.09489,-0.128707 0.174969,-0.289464 z M 8.6958637,10.777706 8.90029,10.572327 9.2533772,7.11152 9.606464,3.650711 9.0389276,2.798751 C 8.7267821,2.3301731 8.4694384,1.9467913 8.4670509,1.9467913 c -0.00238,0 -0.2597307,0.3833818 -0.5718763,0.8519597 l -0.5675363,0.85196 0.3530871,3.460809 0.3530865,3.460807 0.2044265,0.205379 c 0.112435,0.112967 0.2154007,0.205378 0.2288125,0.205378 0.013394,0 0.1163792,-0.09242 0.2288128,-0.205378 z"
     id="path6"
     class="ColorScheme-Text" />
  <g
     aria-label="Steam"
     id="text2284"
     style="font-size:1.76385px;opacity:1;fill:#999999;stroke-width:0.529156"
     transform="matrix(0.95007376,0,0,0.95007376,0.0973921,0.05915858)" />
</svg>
